<svg width="38" height="38" viewBox="0 0 38 38" fill="none" xmlns="http://www.w3.org/2000/svg">
<circle cx="19" cy="19" r="19" fill="white"/>
<circle cx="19" cy="19" r="18.5" stroke="black" stroke-opacity="0.2"/>
<path d="M8.5 15.7C8.5 13.1798 8.5 11.9196 8.99047 10.957C9.4219 10.1103 10.1103 9.4219 10.957 8.99047C11.9196 8.5 13.1798 8.5 15.7 8.5H22.3C24.8202 8.5 26.0804 8.5 27.043 8.99047C27.8897 9.4219 28.5781 10.1103 29.0095 10.957C29.5 11.9196 29.5 13.1798 29.5 15.7V22.3C29.5 24.8202 29.5 26.0804 29.0095 27.043C28.5781 27.8897 27.8897 28.5781 27.043 29.0095C26.0804 29.5 24.8202 29.5 22.3 29.5H15.7C13.1798 29.5 11.9196 29.5 10.957 29.0095C10.1103 28.5781 9.4219 27.8897 8.99047 27.043C8.5 26.0804 8.5 24.8202 8.5 22.3V15.7Z" fill="url(#paint0_linear_2093_152)"/>
<path d="M25.2064 14.52C24.0711 13.56 22.7087 13.08 21.2706 13L21.0436 13.24C22.3303 13.56 23.4656 14.2 24.5252 15.08C23.2385 14.36 21.8005 13.88 20.2867 13.72C19.8326 13.64 19.4541 13.64 19 13.64C18.5459 13.64 18.1674 13.64 17.7133 13.72C16.1995 13.88 14.7615 14.36 13.4748 15.08C14.5344 14.2 15.6697 13.56 16.9564 13.24L16.7294 13C15.2913 13.08 13.9289 13.56 12.7936 14.52C11.5069 17.08 10.8257 19.96 10.75 22.92C11.8853 24.2 13.4748 25 15.1399 25C15.1399 25 15.6697 24.36 16.0482 23.8C15.0642 23.56 14.156 23 13.5505 22.12C14.0803 22.44 14.6101 22.76 15.1399 23C15.8211 23.32 16.5023 23.48 17.1835 23.64C17.789 23.72 18.3945 23.8 19 23.8C19.6055 23.8 20.211 23.72 20.8165 23.64C21.4977 23.48 22.1789 23.32 22.8601 23C23.3899 22.76 23.9197 22.44 24.4495 22.12C23.844 23 22.9358 23.56 21.9518 23.8C22.3303 24.36 22.8601 25 22.8601 25C24.5252 25 26.1147 24.2 27.25 22.92C27.1743 19.96 26.4931 17.08 25.2064 14.52ZM16.5023 21.48C15.7454 21.48 15.0642 20.76 15.0642 19.88C15.0642 19 15.7454 18.28 16.5023 18.28C17.2592 18.28 17.9404 19 17.9404 19.88C17.9404 20.76 17.2592 21.48 16.5023 21.48ZM21.4977 21.48C20.7408 21.48 20.0596 20.76 20.0596 19.88C20.0596 19 20.7408 18.28 21.4977 18.28C22.2546 18.28 22.9358 19 22.9358 19.88C22.9358 20.76 22.2546 21.48 21.4977 21.48Z" fill="white"/>
<defs>
<linearGradient id="paint0_linear_2093_152" x1="29" y1="30" x2="9" y2="9" gradientUnits="userSpaceOnUse">
<stop stop-color="#323232"/>
<stop offset="1" stop-color="#8A8A8A"/>
</linearGradient>
</defs>
</svg>
