<svg width="38" height="38" viewBox="0 0 38 38" fill="none" xmlns="http://www.w3.org/2000/svg">
<circle cx="19" cy="19" r="19" fill="#F8F8F8"/>
<circle cx="19" cy="19" r="18.5" stroke="black" stroke-opacity="0.2"/>
<g clip-path="url(#clip0_2093_124)">
<path fill-rule="evenodd" clip-rule="evenodd" d="M19 7C12.3724 7 7 12.3808 7 19.0204C7 24.3304 10.438 28.8364 15.2068 30.4252C15.8068 30.5356 16.0252 30.1648 16.0252 29.8456C16.0252 29.5612 16.0156 28.804 16.0096 27.802C12.6712 28.528 11.9668 26.1904 11.9668 26.1904C11.422 24.8008 10.6348 24.4312 10.6348 24.4312C9.5452 23.6872 10.7176 23.7016 10.7176 23.7016C11.9212 23.7856 12.5548 24.94 12.5548 24.94C13.6252 26.776 15.364 26.2456 16.0468 25.9384C16.1572 25.162 16.4668 24.6328 16.81 24.3328C14.146 24.0292 11.344 22.9972 11.344 18.3916C11.344 17.08 11.812 16.006 12.5788 15.166C12.4552 14.8624 12.0436 13.6396 12.6964 11.986C12.6964 11.986 13.7044 11.662 15.9964 13.2172C16.9753 12.9502 17.9853 12.8142 19 12.8128C20.02 12.8176 21.046 12.9508 22.0048 13.2172C24.2956 11.662 25.3012 11.9848 25.3012 11.9848C25.9564 13.6396 25.5436 14.8624 25.4212 15.166C26.1892 16.006 26.6548 17.08 26.6548 18.3916C26.6548 23.0092 23.848 24.0256 21.1756 24.3232C21.6064 24.694 21.9892 25.4272 21.9892 26.5492C21.9892 28.1548 21.9748 29.452 21.9748 29.8456C21.9748 30.1672 22.1908 30.5416 22.8004 30.424C25.19 29.6225 27.2672 28.0904 28.7386 26.0441C30.2099 23.9977 31.001 21.5408 31 19.0204C31 12.3808 25.6264 7 19 7Z" fill="url(#paint0_linear_2093_124)"/>
</g>
<defs>
<linearGradient id="paint0_linear_2093_124" x1="32.0009" y1="29.999" x2="6.98858" y2="8.08355" gradientUnits="userSpaceOnUse">
<stop stop-color="#323232"/>
<stop offset="1" stop-color="#8A8A8A"/>
</linearGradient>
<clipPath id="clip0_2093_124">
<rect width="24" height="24" fill="white" transform="translate(7 7)"/>
</clipPath>
</defs>
</svg>
