<svg width="38" height="38" viewBox="0 0 38 38" fill="none" xmlns="http://www.w3.org/2000/svg">
<circle cx="19" cy="19" r="19" fill="url(#paint0_linear_2093_125)"/>
<g clip-path="url(#clip0_2093_125)">
<path d="M19 9.16094C22.2063 9.16094 22.5859 9.175 23.8469 9.23125C25.0188 9.28281 25.6516 9.47969 26.0734 9.64375C26.6313 9.85938 27.0344 10.1219 27.4516 10.5391C27.8734 10.9609 28.1313 11.3594 28.3469 11.9172C28.5109 12.3391 28.7078 12.9766 28.7594 14.1437C28.8156 15.4094 28.8297 15.7891 28.8297 18.9906C28.8297 22.1969 28.8156 22.5766 28.7594 23.8375C28.7078 25.0094 28.5109 25.6422 28.3469 26.0641C28.1313 26.6219 27.8688 27.025 27.4516 27.4422C27.0297 27.8641 26.6313 28.1219 26.0734 28.3375C25.6516 28.5016 25.0141 28.6984 23.8469 28.75C22.5813 28.8063 22.2016 28.8203 19 28.8203C15.7938 28.8203 15.4141 28.8063 14.1531 28.75C12.9813 28.6984 12.3484 28.5016 11.9266 28.3375C11.3688 28.1219 10.9656 27.8594 10.5484 27.4422C10.1266 27.0203 9.86875 26.6219 9.65313 26.0641C9.48906 25.6422 9.29219 25.0047 9.24063 23.8375C9.18438 22.5719 9.17031 22.1922 9.17031 18.9906C9.17031 15.7844 9.18438 15.4047 9.24063 14.1437C9.29219 12.9719 9.48906 12.3391 9.65313 11.9172C9.86875 11.3594 10.1313 10.9562 10.5484 10.5391C10.9703 10.1172 11.3688 9.85938 11.9266 9.64375C12.3484 9.47969 12.9859 9.28281 14.1531 9.23125C15.4141 9.175 15.7938 9.16094 19 9.16094ZM19 7C15.7422 7 15.3344 7.01406 14.0547 7.07031C12.7797 7.12656 11.9031 7.33281 11.1438 7.62812C10.3516 7.9375 9.68125 8.34531 9.01563 9.01562C8.34531 9.68125 7.9375 10.3516 7.62813 11.1391C7.33281 11.9031 7.12656 12.775 7.07031 14.05C7.01406 15.3344 7 15.7422 7 19C7 22.2578 7.01406 22.6656 7.07031 23.9453C7.12656 25.2203 7.33281 26.0969 7.62813 26.8563C7.9375 27.6484 8.34531 28.3188 9.01563 28.9844C9.68125 29.65 10.3516 30.0625 11.1391 30.3672C11.9031 30.6625 12.775 30.8687 14.05 30.925C15.3297 30.9812 15.7375 30.9953 18.9953 30.9953C22.2531 30.9953 22.6609 30.9812 23.9406 30.925C25.2156 30.8687 26.0922 30.6625 26.8516 30.3672C27.6391 30.0625 28.3094 29.65 28.975 28.9844C29.6406 28.3188 30.0531 27.6484 30.3578 26.8609C30.6531 26.0969 30.8594 25.225 30.9156 23.95C30.9719 22.6703 30.9859 22.2625 30.9859 19.0047C30.9859 15.7469 30.9719 15.3391 30.9156 14.0594C30.8594 12.7844 30.6531 11.9078 30.3578 11.1484C30.0625 10.3516 29.6547 9.68125 28.9844 9.01562C28.3188 8.35 27.6484 7.9375 26.8609 7.63281C26.0969 7.3375 25.225 7.13125 23.95 7.075C22.6656 7.01406 22.2578 7 19 7Z" fill="white"/>
<path d="M19 12.8359C15.5969 12.8359 12.8359 15.5969 12.8359 19C12.8359 22.4031 15.5969 25.1641 19 25.1641C22.4031 25.1641 25.1641 22.4031 25.1641 19C25.1641 15.5969 22.4031 12.8359 19 12.8359ZM19 22.9984C16.7922 22.9984 15.0016 21.2078 15.0016 19C15.0016 16.7922 16.7922 15.0016 19 15.0016C21.2078 15.0016 22.9984 16.7922 22.9984 19C22.9984 21.2078 21.2078 22.9984 19 22.9984Z" fill="white"/>
<path d="M26.8469 12.5924C26.8469 13.3893 26.2 14.0315 25.4078 14.0315C24.6109 14.0315 23.9688 13.3846 23.9688 12.5924C23.9688 11.7955 24.6156 11.1533 25.4078 11.1533C26.2 11.1533 26.8469 11.8002 26.8469 12.5924Z" fill="white"/>
</g>
<defs>
<linearGradient id="paint0_linear_2093_125" x1="31.5" y1="0.999999" x2="7.5" y2="38" gradientUnits="userSpaceOnUse">
<stop stop-color="#F9CE34"/>
<stop offset="0.495" stop-color="#EE2A7B"/>
<stop offset="1" stop-color="#6228D7"/>
</linearGradient>
<clipPath id="clip0_2093_125">
<rect width="24" height="24" fill="white" transform="translate(7 7)"/>
</clipPath>
</defs>
</svg>
