<svg width="24" height="24" viewBox="0 0 24 24" fill="none" xmlns="http://www.w3.org/2000/svg">
<path d="M21.3226 10.1864L16.6322 4.71423C15.8353 3.78454 14.1639 3.78503 13.368 4.71374L8.67713 10.1864C7.77039 11.244 7.77039 12.7216 8.67713 13.7792L13.3676 19.2513C13.766 19.7162 14.3607 19.9828 14.9999 19.9828C15.639 19.9828 16.2338 19.7162 16.6317 19.2518L21.3226 13.7792C22.2294 12.7216 22.2294 11.244 21.3226 10.1864ZM19.8041 12.4774L15.1127 17.9506C15.0961 17.9711 14.9042 17.9716 14.8866 17.9501L10.1957 12.4774C9.93397 12.1722 9.93397 11.7933 10.1957 11.4882L14.8871 6.01501C14.8954 6.00476 14.9359 5.98278 14.9999 5.98278C15.0638 5.98278 15.1044 6.00475 15.1132 6.01549L19.8041 11.4882C20.0658 11.7933 20.0658 12.1722 19.8041 12.4774ZM9.36567 17.6555L10.6829 19.1922L10.6317 19.2518C10.2338 19.7162 9.63904 19.9828 8.99988 19.9828C8.36072 19.9828 7.76599 19.7162 7.36756 19.2513L2.67713 13.7792C1.77039 12.7216 1.77039 11.244 2.67713 10.1864L7.36805 4.71374C8.16395 3.78503 9.83534 3.78454 10.6322 4.71423L10.6829 4.77343L9.36573 6.31011L9.11317 6.01549C9.09559 5.99401 8.9037 5.99449 8.8871 6.015L4.19569 11.4881C3.93397 11.7933 3.93397 12.1722 4.19569 12.4774L8.88661 17.9501C8.90419 17.9715 9.09608 17.9711 9.11268 17.9506L9.36567 17.6555Z" fill="white"/>
</svg>
