<svg width="38" height="38" viewBox="0 0 38 38" fill="none" xmlns="http://www.w3.org/2000/svg">
<circle cx="19" cy="19" r="19" fill="url(#paint0_linear_2093_133)"/>
<circle cx="19" cy="19" r="18.5" stroke="black" stroke-opacity="0.2"/>
<path d="M28 19C28 23.9706 23.9706 28 19 28C17.1041 28 15.3452 27.4138 13.8945 26.4127L10.8182 27.1818L11.6243 24.1588C10.6007 22.698 10 20.9192 10 19C10 14.0294 14.0294 10 19 10C23.9706 10 28 14.0294 28 19Z" fill="url(#paint1_linear_2093_133)"/>
<path fill-rule="evenodd" clip-rule="evenodd" d="M19 29.5C24.799 29.5 29.5 24.799 29.5 19C29.5 13.201 24.799 8.5 19 8.5C13.201 8.5 8.5 13.201 8.5 19C8.5 20.8832 8.99575 22.6505 9.86386 24.1787L8.5 29.5L13.9861 28.2278C15.476 29.0391 17.1842 29.5 19 29.5ZM19 27.8846C23.9068 27.8846 27.8846 23.9068 27.8846 19C27.8846 14.0932 23.9068 10.1154 19 10.1154C14.0932 10.1154 10.1154 14.0932 10.1154 19C10.1154 20.8945 10.7084 22.6506 11.7189 24.0927L10.9231 27.0769L13.9599 26.3177C15.392 27.3059 17.1284 27.8846 19 27.8846Z" fill="white"/>
<path d="M16.375 14.125C16.1254 13.6236 15.7424 13.668 15.3555 13.668C14.6641 13.668 13.5859 14.4962 13.5859 16.0376C13.5859 17.3008 14.1426 18.6836 16.0183 20.7522C17.8285 22.7485 20.207 23.7812 22.1816 23.7461C24.1563 23.7109 24.5625 22.0117 24.5625 21.4379C24.5625 21.1835 24.4047 21.0566 24.296 21.0221C23.6231 20.6992 22.382 20.0975 22.0996 19.9844C21.8172 19.8714 21.6698 20.0243 21.5781 20.1075C21.3221 20.3515 20.8144 21.0707 20.6406 21.2325C20.4668 21.3942 20.2077 21.3124 20.0999 21.2512C19.7031 21.092 18.6272 20.6134 17.7696 19.7821C16.709 18.754 16.6467 18.4002 16.4469 18.0854C16.2871 17.8335 16.4044 17.6789 16.4629 17.6114C16.6914 17.3477 17.007 16.9406 17.1485 16.7383C17.29 16.536 17.1776 16.2289 17.1102 16.0376C16.8203 15.2149 16.5747 14.5262 16.375 14.125Z" fill="white"/>
<defs>
<linearGradient id="paint0_linear_2093_133" x1="34" y1="1.63521e-06" x2="4.5" y2="39.5" gradientUnits="userSpaceOnUse">
<stop stop-color="#5BD066"/>
<stop offset="1" stop-color="#27B43E"/>
</linearGradient>
<linearGradient id="paint1_linear_2093_133" x1="26.875" y1="12.25" x2="10" y2="28" gradientUnits="userSpaceOnUse">
<stop stop-color="#5BD066"/>
<stop offset="1" stop-color="#27B43E"/>
</linearGradient>
</defs>
</svg>
